
        <svg xmlns="http://www.w3.org/2000/svg" xmlns:xlink="http://www.w3.org/1999/xlink" version="1.1" width="3162.08104052026" 
        height="674.737251939156" viewBox="0 0 3162.08104052026 674.737251939156">
			
			<g transform="scale(8.104052026013006) translate(10, 10)">
				<defs id="SvgjsDefs4686"><linearGradient id="SvgjsLinearGradient4693"><stop id="SvgjsStop4694" stop-color="#2d388a" offset="0"></stop><stop id="SvgjsStop4695" stop-color="#00aeef" offset="1"></stop></linearGradient><linearGradient id="SvgjsLinearGradient4696"><stop id="SvgjsStop4697" stop-color="#616161" offset="0"></stop><stop id="SvgjsStop4698" stop-color="#e6e7e8" offset="0.5"></stop><stop id="SvgjsStop4699" stop-color="#616161" offset="1"></stop></linearGradient></defs><g id="SvgjsG4687" featureKey="HdFLvg-0" transform="matrix(0.11569818164965584,0,0,0.11569818164965584,-2.050819165027303,-3.7009850920157055)" fill="url(#SvgjsLinearGradient4693)"><metadata xmlns="http://www.w3.org/2000/svg">Created by potrace 1.14, written by Peter Selinger 2001-2017</metadata><g xmlns="http://www.w3.org/2000/svg" transform="translate(0.000000,600.000000) scale(0.100000,-0.100000)" fill="url(#SvgjsLinearGradient4693)" stroke="none"><path d="M2983 5664 c-145 -21 -253 -50 -354 -95 -52 -23 -101 -41 -109 -41 -8 0 -49 8 -90 17 -109 25 -328 16 -467 -19 -189 -47 -375 -133 -559 -257 -457 -308 -820 -859 -875 -1330 -12 -103 -12 -104 -56 -149 -266 -269 -364 -809 -247 -1355 89 -417 370 -890 653 -1098 93 -68 99 -74 110 -122 6 -27 31 -91 56 -141 139 -287 454 -553 840 -709 464 -187 1056 -204 1443 -40 l109 45 69 -17 c105 -26 310 -24 443 6 410 90 815 361 1096 736 142 188 209 306 288 505 56 140 84 246 95 365 9 89 10 90 57 139 133 137 230 356 275 621 20 114 22 154 17 325 -7 284 -43 463 -142 716 -133 341 -338 630 -571 805 -60 45 -94 77 -94 89 0 33 -46 146 -91 226 -193 338 -651 640 -1126 744 -228 50 -563 65 -770 34z m405 -25 c411 -45 835 -240 1103 -508 114 -114 227 -274 253 -358 l7 -21 -63 20 c-80 26 -265 35 -379 18 -237 -34 -482 -151 -672 -320 -72 -65 -167 -208 -208 -314 -55 -141 -72 -249 -66 -416 3 -80 9 -156 13 -169 l7 -24 -184 6 c-173 5 -401 35 -421 55 -4 4 10 41 31 82 178 341 274 771 242 1081 -26 246 -112 433 -190 414 -53 -13 -83 -39 -102 -88 l-19 -48 34 -62 c81 -145 122 -344 112 -542 -12 -239 -82 -530 -178 -737 -31 -67 -33 -70 -62 -64 -42 9 -177 68 -244 108 -72 43 -193 156 -247 233 -100 140 -150 282 -165 461 -19 248 36 504 154 705 46 77 126 174 175 208 27 20 28 20 127 -6 72 -18 117 -24 166 -21 37 2 70 6 73 9 6 7 -25 46 -96 120 l-46 49 73 30 c114 47 256 79 459 103 67 8 222 6 313 -4z m-1126 -245 l38 -7 -74 -78 c-56 -60 -87 -105 -129 -186 -103 -203 -143 -384 -133 -608 8 -189 28 -281 86 -400 101 -205 250 -350 472 -458 70 -34 127 -66 128 -72 1 -50 -332 -509 -352 -485 -2 3 -31 45 -63 94 -207 315 -478 567 -763 710 -205 103 -447 142 -482 77 -5 -10 -12 -37 -16 -60 -6 -37 -3 -45 29 -84 l36 -44 103 -6 c282 -17 542 -159 838 -457 74 -75 162 -174 195 -219 l59 -84 -44 -39 c-130 -114 -285 -192 -439 -224 -112 -22 -304 -15 -409 15 -338 98 -665 405 -761 715 -32 105 -31 110 57 206 47 52 87 107 101 139 25 58 23 68 -7 52 -12 -6 -38 -11 -60 -11 -22 0 -59 -7 -82 -15 -23 -8 -43 -15 -44 -15 -1 0 1 30 5 68 21 195 130 475 261 672 264 395 736 717 1150 785 157 25 233 30 300 19z m2433 -655 l70 -24 33 -109 c20 -68 45 -126 65 -154 36 -51 57 -63 57 -35 0 11 10 39 21 63 12 24 24 61 27 82 2 21 8 38 12 38 14 0 136 -99 186 -151 248 -261 399 -549 469 -894 81 -406 50 -747 -98 -1068 -34 -74 -94 -167 -107 -167 -3 0 -12 28 -19 61 -38 185 -214 425 -417 571 -86 61 -237 140 -354 184 -72 27 -82 28 -250 28 -162 0 -182 -2 -265 -28 -116 -35 -253 -103 -344 -172 -40 -30 -76 -54 -80 -54 -11 0 -96 147 -141 243 -42 91 -115 295 -109 301 2 3 65 9 139 15 314 26 546 86 790 204 198 96 367 230 455 360 49 72 48 115 -2 157 -34 28 -43 31 -86 25 -67 -8 -68 -9 -112 -82 -22 -37 -76 -103 -120 -148 -170 -173 -415 -295 -760 -380 -93 -23 -324 -58 -333 -50 -12 10 -32 178 -32 265 0 241 82 441 250 611 161 163 355 265 608 320 127 28 349 22 447 -12z m-4146 -1242 c60 -231 282 -491 544 -636 208 -115 382 -154 580 -131 176 20 364 95 503 201 34 25 66 49 72 53 13 8 88 -112 143 -229 40 -86 119 -296 119 -315 0 -6 -28 -10 -63 -10 -95 0 -307 -27 -435 -56 -330 -74 -627 -226 -804 -413 -136 -143 -154 -205 -77 -261 34 -24 43 -26 81 -19 24 4 48 8 54 9 6 0 32 34 59 76 140 222 402 391 765 494 134 38 275 66 371 75 l76 7 14 -68 c20 -101 18 -332 -5 -414 -23 -84 -72 -190 -128 -277 -134 -206 -405 -374 -708 -439 -122 -26 -318 -24 -425 5 -43 12 -83 25 -87 29 -4 4 -22 54 -39 112 -31 104 -59 159 -98 194 -21 19 -21 19 -21 -5 0 -14 -5 -30 -11 -36 -6 -6 -20 -43 -32 -82 l-22 -71 -80 64 c-115 92 -256 256 -345 401 -112 182 -192 393 -237 623 -24 122 -27 161 -27 357 -1 194 2 234 23 335 24 121 73 265 124 365 30 61 88 148 94 142 1 -2 12 -38 22 -80z m2411 14 c105 -22 219 -37 351 -46 l86 -7 26 -97 c34 -130 88 -272 154 -408 l55 -111 -43 -39 c-71 -64 -227 -252 -302 -363 -43 -65 -76 -105 -86 -104 -9 1 -61 13 -116 27 -135 35 -267 56 -406 64 l-117 6 -22 86 c-33 127 -95 291 -158 418 l-55 112 91 96 c103 108 208 239 277 349 l47 74 61 -19 c34 -10 105 -28 157 -38z m1639 -392 c99 -25 279 -114 377 -187 144 -107 280 -265 352 -409 31 -61 72 -190 72 -226 0 -11 -33 -54 -74 -96 -66 -67 -126 -158 -126 -190 0 -13 51 -7 144 15 32 8 61 12 64 9 13 -13 -22 -188 -62 -309 -88 -266 -213 -473 -410 -674 -342 -351 -766 -552 -1157 -552 -116 0 -132 8 -89 43 128 108 251 353 291 577 18 105 16 334 -5 449 -38 216 -170 422 -359 562 -74 55 -214 132 -285 157 l-33 11 16 32 c65 124 191 305 297 423 l43 48 61 -93 c272 -416 672 -732 1022 -809 134 -30 209 -24 230 17 5 10 12 37 15 60 5 38 1 47 -31 83 -37 41 -37 41 -122 46 -197 10 -399 89 -593 230 -92 66 -236 196 -317 285 -83 91 -189 228 -190 245 0 11 96 91 173 143 95 64 227 114 349 131 88 12 256 2 347 -21z m-1681 -784 c105 -13 262 -41 268 -48 1 -1 -25 -56 -57 -122 -69 -141 -138 -325 -168 -445 -75 -306 -79 -613 -11 -820 59 -175 104 -216 194 -174 27 13 38 28 54 69 l19 53 -33 58 c-147 259 -151 628 -13 1079 28 89 92 247 109 268 8 9 128 -31 200 -68 187 -95 319 -233 410 -429 64 -138 75 -196 75 -406 0 -169 -3 -195 -28 -294 -50 -200 -136 -362 -251 -475 l-65 -65 -120 28 c-91 22 -131 27 -170 21 -28 -4 -53 -10 -56 -15 -5 -8 39 -63 99 -123 21 -21 37 -40 35 -42 -17 -15 -141 -59 -237 -84 -174 -43 -287 -55 -490 -48 -205 6 -308 25 -511 93 -382 127 -686 344 -878 629 -45 66 -89 152 -82 159 2 3 36 -5 74 -16 57 -17 96 -21 210 -21 255 1 449 63 674 214 173 115 279 239 352 409 64 152 93 370 70 533 -6 44 -9 83 -5 88 8 14 196 11 332 -6z"></path></g></g><g id="SvgjsG4688" featureKey="VomJeJ-0" transform="matrix(0.6913968482448484,0,0,0.6913968482448484,83.84592041994425,14.461220070257973)" fill="url(#SvgjsLinearGradient4696)"><path d="M1.6692 8.475 l15.938 0 l0 2.3477 l-6.7954 0 l0 9.0932 l-2.3476 0 l0 -9.0932 l-6.7946 0 l0 -2.3477 z M34.559 8.617 l2.3476 0 l0 11.407 l-2.3476 0 l0 -4.5299 l-11.242 0 l0 4.5299 l-2.3477 0 l0 -11.407 l2.3477 0 l0 4.5299 l11.242 0 l0 -4.5299 z M56.187 10.9512 l-13.59 0.000019531 l0 2.1863 l9.0642 0.03375 l-0.0086328 2.3478 l-9.0556 -0.03375 l0 2.1782 l13.59 0 l0 2.3477 l-15.938 0 l0 -11.407 l15.938 0 l0 2.3476 z M84.30699999999999 12.0424 c0 1.0081 -0.32878 1.759 -0.8114 2.2982 c0.48524 0.53376 0.8113 1.2642 0.8113 2.2318 c0 2.523 -2.0564 3.4388 -3.4388 3.4388 l-12.499 0 l0 -11.408 l12.237 0 c1.4875 0 3.7004 0.9158 3.7004 3.4388 z M81.518 17.4818 c0.21816 -0.12072 0.44116 -0.32318 0.44102 -0.90964 c0 -0.47164 -0.15969 -0.72696 -0.56946 -0.91072 c-0.3725 -0.16701 -0.77926 -0.18049 -0.78304 -0.18049 l-9.8895 0 l0 2.1822 l10.141 0 c0.1024 -0.0033984 0.40832 -0.041972 0.66036 -0.18139 z M81.518 12.952 c0.21816 -0.12072 0.44116 -0.32304 0.44116 -0.90964 c0 -0.47164 -0.15969 -0.72696 -0.56946 -0.91072 c-0.3725 -0.16701 -0.77926 -0.18049 -0.78304 -0.18049 l-9.8895 0 l0 2.1822 l10.14 0 c0.1024 -0.0033984 0.40832 -0.041972 0.66036 -0.18139 z M89.67699999999999 17.619 l13.59 0 l0 2.3477 l-15.938 0 l0 -11.407 l2.3477 0 l0 9.0597 z M121.565 9.649 c0.91776 0.9099 0.9102 2.226 0.89856 4.2182 c-0.00091796 0.14832 -0.0016992 0.302 -0.0023438 0.46118 c-0.0044532 1.1823 -0.0075976 2.0366 -0.13172 2.757 c-0.10568 0.6142 -0.34974 1.4995 -1.2436 2.0954 c-1.1321 0.75466 -2.8232 0.77168 -6.5282 0.8087 c-0.57862 0.0057618 -1.1122 0.010078 -1.6046 0.010078 c-2.9354 0 -4.411 -0.15537 -5.3538 -1.0922 c-0.98198 -0.9757 -0.97648 -2.4126 -0.96838 -4.5876 c0.0090234 -2.4268 0.014512 -3.8916 1.2447 -4.801 c1.0614 -0.7845 2.6028 -0.80516 5.9798 -0.85054 l0.67396 -0.0092774 c4.2088 -0.060156 5.9508 -0.085136 7.0354 0.99024 z M120.131 13.854199999999999 c0.006543 -1.1448 0.013457 -2.3288 -0.20864 -2.5488 c-0.27556 -0.27322 -1.5123 -0.33638 -3.1584 -0.33638 c-0.67736 0 -1.4242 0.010723 -2.2018 0.021836 l-0.67606 0.0092774 c-2.4194 0.032442 -4.1674 0.055976 -4.625 0.39406 c-0.2888 0.21346 -0.2935 1.4744 -0.29898 2.9346 c-0.0050976 1.3559 -0.0099414 2.6366 0.28016 2.9248 c0.4554 0.45254 2.9138 0.42782 5.2914 0.40428 c2.7302 -0.027206 4.7028 -0.046954 5.258 -0.4171 c0.32686 -0.2179 0.33104 -1.3516 0.33692 -2.9208 c0.00052734 -0.16074 0.0014453 -0.316 0.0023632 -0.46588 z M141.57 17.65 l0.040136 2.3242 l-1.1621 0.02002 c-0.015039 0.0002539 -1.0275 0.017129 -3.0076 0.017129 c-1.0032 0 -2.2546 -0.0044532 -3.7506 -0.017402 c-2.4132 -0.021054 -4.3428 -0.54212 -5.7348 -1.549 c-1.3835 -1.0007 -2.1454 -2.4562 -2.1454 -4.0986 c0 -1.6413 0.76854 -3.1002 2.164 -4.1074 c1.383 -0.99846 3.3616 -1.531 5.7218 -1.5402 c4.441 -0.017129 6.719 0.00027344 6.7416 0.00041016 l1.1622 0.0091602 l-0.01832 2.3246 l-1.1622 -0.0091602 c-0.022364 -0.0002539 -2.2892 -0.01752 -6.7144 -0.00039062 c-3.4358 0.01334 -5.5702 1.2866 -5.5702 3.3232 c0 0.90194 0.39812 1.6473 1.1831 2.215 c0.97936 0.70836 2.4984 1.0916 4.3926 1.1081 c4.4144 0.038574 6.6758 0.00089844 6.698 0.00050782 z M160.71599999999998 17.619 l0.034746 2.3244 l-1.1621 0.017402 c-0.18049 0.002754 -0.38464 0.0058984 -0.60738 0.0058984 c-1.6091 0 -4.1898 -0.15982 -5.8222 -1.768 c-0.77534 -0.7638 -1.2442 -1.7492 -1.4014 -2.9364 c-0.85432 0.12438 -1.7942 0.19199 -2.8226 0.19199 l-1.641 0 l0 4.4852 l-2.3246 0 l0 -11.295 l2.3246 0 l0 4.4853 l1.641 0 c4.7582 0 7.2478 -1.6252 7.2478 -3.2308 l0 -1.1623 l2.3246 0 l0 1.1622 c0 1.9109 -1.4137 3.8334 -4.469 4.8392 c0.06213 0.77546 0.30946 1.3688 0.75204 1.8049 c1.1652 1.1478 3.5954 1.1114 4.7634 1.0939 z M178.87 17.65 l0.040136 2.3242 l-1.1621 0.02002 c-0.015039 0.0002539 -1.0275 0.017129 -3.0076 0.017129 c-1.0032 0 -2.2546 -0.0044532 -3.7506 -0.017402 c-2.4132 -0.021054 -4.3428 -0.54212 -5.7348 -1.549 c-1.3835 -1.0007 -2.1454 -2.4562 -2.1454 -4.0986 c0 -1.6413 0.76854 -3.1002 2.164 -4.1074 c1.383 -0.99846 3.3616 -1.531 5.7218 -1.5402 c4.441 -0.017129 6.719 0.00027344 6.7416 0.00041016 l1.1622 0.0091602 l-0.01832 2.3246 l-1.1622 -0.0091602 c-0.022364 -0.0002539 -2.2892 -0.01752 -6.7144 -0.00039062 c-3.4358 0.01334 -5.5702 1.2866 -5.5702 3.3232 c0 0.90194 0.39812 1.6473 1.1831 2.215 c0.97936 0.70836 2.4984 1.0916 4.3926 1.1081 c4.4144 0.038574 6.6758 0.00089844 6.698 0.00050782 z M195.85899999999998 8.617 l2.3476 0 l0 11.407 l-2.3476 0 l0 -4.5299 l-11.242 0 l0 4.5299 l-2.3477 0 l0 -11.407 l2.3477 0 l0 4.5299 l11.242 0 l0 -4.5299 z M209.7154 8.011 l9.1766 12.19 l-2.9508 0 l-2.566 -3.3974 l-7.3197 0 l-2.5286 3.3974 l-2.9177 0 z M207.8162 14.4556 l3.7983 0 l-1.8992 -2.5322 z M223.63379999999998 20.02461 l-2.3246 0 l0 -11.295 l2.3246 0 l0 11.295 z M240.579 8.593 l2.3476 0 l0 11.25 l-13.59 -7.098 l0 7.2556 l-2.3477 0 l0 -11.25 l13.59 7.098 l0 -7.2556 z M270.90999999999997 17.65 l0.040136 2.3242 l-1.1621 0.02002 c-0.015039 0.0002539 -1.0275 0.017129 -3.0076 0.017129 c-1.0032 0 -2.2546 -0.0044532 -3.7506 -0.017402 c-2.4132 -0.021054 -4.3428 -0.54212 -5.7348 -1.549 c-1.3835 -1.0007 -2.1454 -2.4562 -2.1454 -4.0986 c0 -1.6413 0.76854 -3.1002 2.164 -4.1074 c1.383 -0.99846 3.3616 -1.531 5.7218 -1.5402 c4.441 -0.017129 6.719 0.00027344 6.7416 0.00041016 l1.1622 0.0091602 l-0.01832 2.3246 l-1.1622 -0.0091602 c-0.022364 -0.0002539 -2.2892 -0.01752 -6.7144 -0.00039062 c-3.4358 0.01334 -5.5702 1.2866 -5.5702 3.3232 c0 0.90194 0.39812 1.6473 1.1831 2.215 c0.97936 0.70836 2.4984 1.0916 4.3926 1.1081 c4.4144 0.038574 6.6758 0.00089844 6.698 0.00050782 z M289.245 9.649 c0.91776 0.9099 0.9102 2.226 0.89856 4.2182 c-0.00091796 0.14832 -0.0016992 0.302 -0.0023438 0.46118 c-0.0044532 1.1823 -0.0075976 2.0366 -0.13172 2.757 c-0.10568 0.6142 -0.34974 1.4995 -1.2436 2.0954 c-1.1321 0.75466 -2.8232 0.77168 -6.5282 0.8087 c-0.57862 0.0057618 -1.1122 0.010078 -1.6046 0.010078 c-2.9354 0 -4.411 -0.15537 -5.3538 -1.0922 c-0.98198 -0.9757 -0.97648 -2.4126 -0.96838 -4.5876 c0.0090234 -2.4268 0.014512 -3.8916 1.2447 -4.801 c1.0614 -0.7845 2.6028 -0.80516 5.9798 -0.85054 l0.67396 -0.0092774 c4.2088 -0.060156 5.9508 -0.085136 7.0354 0.99024 z M287.811 13.854199999999999 c0.006543 -1.1448 0.013457 -2.3288 -0.20864 -2.5488 c-0.27556 -0.27322 -1.5123 -0.33638 -3.1584 -0.33638 c-0.67736 0 -1.4242 0.010723 -2.2018 0.021836 l-0.67606 0.0092774 c-2.4194 0.032442 -4.1674 0.055976 -4.625 0.39406 c-0.2888 0.21346 -0.2935 1.4744 -0.29898 2.9346 c-0.0050976 1.3559 -0.0099414 2.6366 0.28016 2.9248 c0.4554 0.45254 2.9138 0.42782 5.2914 0.40428 c2.7302 -0.027206 4.7028 -0.046954 5.258 -0.4171 c0.32686 -0.2179 0.33104 -1.3516 0.33692 -2.9208 c0.00052734 -0.16074 0.0014453 -0.316 0.0023632 -0.46588 z M301.45799999999997 14.0628 l7.9688 -5.3126 l0 11.25 l-2.3477 0 l0 -6.8631 l-5.621 3.7472 l-5.621 -3.7472 l0 6.8631 l-2.3477 0 l0 -11.25 z M325.04400000000004 8.475 c1.4873 0 3.7 0.91594 3.7 3.4388 s-2.0564 3.4388 -3.4388 3.4388 l-10.172 0 l-0.016738 4.5342 l-2.3476 -0.0087696 l0.037794 -10.227 l0 -1.1757 l0.0043164 0 l0 -0.0043164 l1.1738 0.0043164 l11.059 0 z M325.956 12.823599999999999 c0.21816 -0.12072 0.4413 -0.32304 0.44118 -0.90952 c0 -0.47164 -0.15957 -0.72696 -0.56948 -0.91072 c-0.3725 -0.16701 -0.77926 -0.18049 -0.78304 -0.18049 l-9.8895 0 l0 2.1822 l10.141 0 c0.1024 -0.0035352 0.40818 -0.04211 0.66022 -0.18152 z M336.7554 8.011 l9.1766 12.19 l-2.9508 0 l-2.566 -3.3974 l-7.3197 0 l-2.5286 3.3974 l-2.9177 0 z M334.8562 14.4556 l3.7983 0 l-1.8992 -2.5322 z M361.939 8.593 l2.3476 0 l0 11.25 l-13.59 -7.098 l0 7.2556 l-2.3477 0 l0 -11.25 l13.59 7.098 l0 -7.2556 z M383.55 8.445 l0.016758 1.1737 c0.01832 1.2629 -0.49072 2.489 -1.4333 3.4524 c-0.88466 0.90428 -2.5122 1.966 -5.367 2.2142 l-0.036758 4.6262 l-2.3476 -0.016094 l0.036484 -4.5994 c-2.2324 -0.18141 -4.09 -0.92992 -5.3086 -2.1572 c-0.97334 -0.9804 -1.4991 -2.2306 -1.4804 -3.5202 l0.017129 -1.1737 l2.3474 0.03414 l-0.017012 1.1737 c-0.0095508 0.66232 0.26668 1.2959 0.79912 1.832 c0.98028 0.98734 2.6908 1.5237 4.8134 1.507 c2.1676 -0.01582 3.8956 -0.57064 4.8658 -1.5624 c0.50916 -0.5203 0.77322 -1.1346 0.76394 -1.7765 l-0.017012 -1.1737 z M389.27700000000004 19.59116 l-2.3478 0.000019531 l0 -2.375 l2.3477 0 l0 2.375 z M394.95380000000006 20.02461 l-2.3246 0 l0 -11.295 l2.3246 0 l0 11.295 z M413.24500000000006 9.649 c0.91776 0.9099 0.9102 2.226 0.89856 4.2182 c-0.00091796 0.14832 -0.0016992 0.302 -0.0023438 0.46118 c-0.0044532 1.1823 -0.0075976 2.0366 -0.13172 2.757 c-0.10568 0.6142 -0.34974 1.4995 -1.2436 2.0954 c-1.1321 0.75466 -2.8232 0.77168 -6.5282 0.8087 c-0.57862 0.0057618 -1.1122 0.010078 -1.6046 0.010078 c-2.9354 0 -4.411 -0.15537 -5.3538 -1.0922 c-0.98198 -0.9757 -0.97648 -2.4126 -0.96838 -4.5876 c0.0090234 -2.4268 0.014512 -3.8916 1.2447 -4.801 c1.0614 -0.7845 2.6028 -0.80516 5.9798 -0.85054 l0.67396 -0.0092774 c4.2088 -0.060156 5.9508 -0.085136 7.0354 0.99024 z M411.81100000000004 13.854199999999999 c0.006543 -1.1448 0.013457 -2.3288 -0.20864 -2.5488 c-0.27556 -0.27322 -1.5123 -0.33638 -3.1584 -0.33638 c-0.67736 0 -1.4242 0.010723 -2.2018 0.021836 l-0.67606 0.0092774 c-2.4194 0.032442 -4.1674 0.055976 -4.625 0.39406 c-0.2888 0.21346 -0.2935 1.4744 -0.29898 2.9346 c-0.0050976 1.3559 -0.0099414 2.6366 0.28016 2.9248 c0.4554 0.45254 2.9138 0.42782 5.2914 0.40428 c2.7302 -0.027206 4.7028 -0.046954 5.258 -0.4171 c0.32686 -0.2179 0.33104 -1.3516 0.33692 -2.9208 c0.00052734 -0.16074 0.0014453 -0.316 0.0023632 -0.46588 z"></path></g><g id="SvgjsG4689" featureKey="sloganFeature-0" transform="matrix(0.33259076199201965,0,0,0.33259076199201965,154.89357081977374,36.25057267438963)" fill="#ffffff"><path d="M9.42 8.1 l-3.32 11.9 l-2.04 0 l-3.74 -14.36 l2.1 0 l2.68 11.68 l0.04 0 l3.22 -11.68 l2.12 0 l3.22 11.68 l0.04 0 l2.68 -11.68 l2.14 0 l-3.78 14.36 l-2.04 0 l-3.28 -11.9 l-0.04 0 z M37.864000000000004 18.28 l0 1.72 l-10.6 0 l0 -14.36 l10.46 0 l0 1.72 l-8.52 0 l0 4.4 l7.86 0 l0 1.72 l-7.86 0 l0 4.8 l8.66 0 z M48.968 7.300000000000001 l0 4.42 l3.5 0 c1.86 0 3 -0.56 3 -2.32 c0 -1.34 -0.82 -2.1 -2.98 -2.1 l-3.52 0 z M47.028 20 l0 -14.36 l6.32 0 c2.68 0 4.06 1.66 4.06 3.62 c0 0.94 -0.34 2.26 -1.92 3 c0.94 0.38 2.6 1.04 2.6 3.5 c0 2.3 -1.7 4.24 -4.88 4.24 l-6.18 0 z M48.968 13.3 l0 5.04 l4.14 0 c2.02 0 3.04 -1.02 3.04 -2.62 c0 -2.02 -1.78 -2.42 -3.36 -2.42 l-3.82 0 z M70.03200000000001 13.52 l0 -1.52 c0.3 0.02 0.62 0.04 0.92 0.04 c1.36 0 2.68 -0.54 2.68 -2.3 c0 -0.84 -0.5 -2.22 -2.6 -2.22 c-2.5 0 -2.66 2.04 -2.74 3.02 l-1.72 0 c0 -2.06 0.84 -4.6 4.54 -4.6 c2.72 0 4.34 1.56 4.34 3.7 c0 1.8 -1.04 2.66 -1.8 2.9 l0 0.04 c1.36 0.44 2.34 1.4 2.34 3.28 c0 2.3 -1.48 4.52 -5.06 4.52 c-1.04 0 -1.92 -0.26 -2.6 -0.62 c-1.56 -0.82 -1.98 -2.44 -2.1 -4.06 l1.82 0 c0.06 1.32 0.38 3.1 3 3.1 c1.8 0 3.06 -1.1 3.06 -2.72 c0 -2.36 -2.08 -2.58 -3.28 -2.58 c-0.26 0 -0.54 0.02 -0.8 0.02 z M98.98000000000002 7.300000000000001 l0 4.42 l3.5 0 c1.86 0 3 -0.56 3 -2.32 c0 -1.34 -0.82 -2.1 -2.98 -2.1 l-3.52 0 z M97.04000000000002 20 l0 -14.36 l6.32 0 c2.68 0 4.06 1.66 4.06 3.62 c0 0.94 -0.34 2.26 -1.92 3 c0.94 0.38 2.6 1.04 2.6 3.5 c0 2.3 -1.7 4.24 -4.88 4.24 l-6.18 0 z M98.98000000000002 13.3 l0 5.04 l4.14 0 c2.02 0 3.04 -1.02 3.04 -2.62 c0 -2.02 -1.78 -2.42 -3.36 -2.42 l-3.82 0 z M119.02400000000002 5.640000000000001 l0 12.64 l7.28 0 l0 1.72 l-9.22 0 l0 -14.36 l1.94 0 z M146.12800000000001 12.82 c0 -3.38 -1.88 -5.84 -5 -5.84 s-5 2.46 -5 5.84 s1.88 5.84 5 5.84 s5 -2.46 5 -5.84 z M148.12800000000001 12.82 c0 3.1 -1.64 7.56 -7 7.56 s-7 -4.46 -7 -7.56 s1.64 -7.56 7 -7.56 s7 4.46 7 7.56 z M169.052 9.96 l-1.88 0 c-0.54 -2.52 -2.64 -2.98 -4.02 -2.98 c-2.6 0 -4.7 1.92 -4.7 5.7 c0 3.38 1.2 5.98 4.76 5.98 c1.26 0 3.44 -0.6 4.1 -3.94 l1.88 0 c-0.8 5.42 -5.2 5.66 -6.28 5.66 c-3.26 0 -6.46 -2.12 -6.46 -7.64 c0 -4.42 2.52 -7.48 6.7 -7.48 c3.7 0 5.62 2.3 5.9 4.7 z M180.136 14.96 l0 5.04 l-1.94 0 l0 -14.36 l1.94 0 l0 6.96 l6.96 -6.96 l2.68 0 l-5.98 5.8 l6.14 8.56 l-2.52 0 l-5.02 -7.2 z M210.15999999999997 9.96 l-1.88 0 c-0.54 -2.52 -2.64 -2.98 -4.02 -2.98 c-2.6 0 -4.7 1.92 -4.7 5.7 c0 3.38 1.2 5.98 4.76 5.98 c1.26 0 3.44 -0.6 4.1 -3.94 l1.88 0 c-0.8 5.42 -5.2 5.66 -6.28 5.66 c-3.26 0 -6.46 -2.12 -6.46 -7.64 c0 -4.42 2.52 -7.48 6.7 -7.48 c3.7 0 5.62 2.3 5.9 4.7 z M228.76399999999998 11.58 l0 -5.94 l1.94 0 l0 14.36 l-1.94 0 l0 -6.7 l-7.5 0 l0 6.7 l-1.94 0 l0 -14.36 l1.94 0 l0 5.94 l7.5 0 z M248.42799999999997 15.82 l-5.76 0 l-1.5 4.18 l-2 0 l5.4 -14.36 l2.2 0 l5.2 14.36 l-2.12 0 z M243.26799999999997 14.1 l4.46 0 l-2.12 -6.32 l-0.04 0 z M262.652 5.640000000000001 l0 14.36 l-1.94 0 l0 -14.36 l1.94 0 z M282.156 17.240000000000002 l0 -11.6 l1.88 0 l0 14.36 l-2.18 0 l-7.3 -11.6 l-0.04 0 l0 11.6 l-1.88 0 l0 -14.36 l2.3 0 l7.18 11.6 l0.04 0 z M316.76399999999995 18.28 l0 1.72 l-10.6 0 l0 -14.36 l10.46 0 l0 1.72 l-8.52 0 l0 4.4 l7.86 0 l0 1.72 l-7.86 0 l0 4.8 l8.66 0 z M332.368 12.64 l5.04 7.36 l-2.4 0 l-3.86 -5.9 l-3.98 5.9 l-2.34 0 l5.14 -7.36 l-4.82 -7 l2.44 0 l3.64 5.5 l3.64 -5.5 l2.32 0 z M348.112 7.300000000000001 l0 4.98 l3.86 0 c1.74 0 2.92 -0.64 2.92 -2.58 c0 -1.82 -1.24 -2.4 -2.84 -2.4 l-3.94 0 z M348.112 13.940000000000001 l0 6.06 l-1.94 0 l0 -14.36 l6.46 0 c2.66 0 4.26 1.72 4.26 4.04 c0 2 -1.14 4.26 -4.26 4.26 l-4.52 0 z M376.776 18.28 l0 1.72 l-10.6 0 l0 -14.36 l10.46 0 l0 1.72 l-8.52 0 l0 4.4 l7.86 0 l0 1.72 l-7.86 0 l0 4.8 l8.66 0 z M388.16 13.84 l0 6.16 l-1.94 0 l0 -14.36 l6.64 0 c2.36 0 4.72 0.82 4.72 3.86 c0 2.12 -1.08 2.9 -2 3.44 c0.82 0.34 1.64 0.7 1.72 2.7 l0.12 2.6 c0.02 0.8 0.12 1.1 0.72 1.44 l0 0.32 l-2.38 0 c-0.28 -0.88 -0.34 -3.06 -0.34 -3.6 c0 -1.18 -0.24 -2.56 -2.56 -2.56 l-4.7 0 z M388.16 7.300000000000001 l0 4.88 l4.5 0 c1.42 0 2.92 -0.36 2.92 -2.48 c0 -2.22 -1.62 -2.4 -2.58 -2.4 l-4.84 0 z M405.844 7.359999999999999 l0 -1.72 l11.66 0 l0 1.72 l-4.86 0 l0 12.64 l-1.94 0 l0 -12.64 l-4.86 0 z M436.44800000000004 9.84 l-1.82 0 c-0.1 -2.22 -1.94 -2.92 -3.56 -2.92 c-1.22 0 -3.28 0.34 -3.28 2.52 c0 1.22 0.86 1.62 1.7 1.82 l4.1 0.94 c1.86 0.44 3.26 1.56 3.26 3.84 c0 3.4 -3.16 4.34 -5.62 4.34 c-2.66 0 -3.7 -0.8 -4.34 -1.38 c-1.22 -1.1 -1.46 -2.3 -1.46 -3.64 l1.82 0 c0 2.6 2.12 3.36 3.96 3.36 c1.4 0 3.76 -0.36 3.76 -2.42 c0 -1.5 -0.7 -1.98 -3.06 -2.54 l-2.94 -0.68 c-0.94 -0.22 -3.06 -0.88 -3.06 -3.38 c0 -2.24 1.46 -4.44 4.94 -4.44 c5.02 0 5.52 3 5.6 4.58 z"></path></g>
			</g>
		</svg>
	